999
Gabari
0
SECTION
2
HEADER
9
$ACADVER
1
AC1021
9
$HANDSEED
5
270
0
ENDSEC
0
SECTION
2
CLASSES
0
ENDSEC
0
SECTION
2
TABLES
0
TABLE
2
VPORT
5
1a2
100
AcDbSymbolTable
70
1
0
VPORT
5
1a1
100
AcDbSymbolTableRecord
100
AcDbViewportTableRecord
2
*ACTIVE
10
0
20
0
11
1
21
1
12
500.0
22
500.0
40
1000.0
70
0
0
ENDTAB
0
TABLE
2
LTYPE
5
1a3
100
AcDbSymbolTable
70
3
0
LTYPE
5
1ab
100
AcDbSymbolTableRecord
100
AcDbLinetypeTableRecord
2
Solid
70
0
72
65
73
0
3

0
LTYPE
5
1ac
100
AcDbSymbolTableRecord
100
AcDbLinetypeTableRecord
2
ByBlock
70
0
72
65
73
0
3

0
LTYPE
5
1ad
100
AcDbSymbolTableRecord
100
AcDbLinetypeTableRecord
2
ByLayer
70
0
72
65
73
0
3

0
ENDTAB
0
TABLE
2
LAYER
5
1a4
100
AcDbSymbolTable
70
1
0
LAYER
5
1ae
100
AcDbSymbolTableRecord
100
AcDbLayerTableRecord
2
0
70
0
390
0
0
ENDTAB
0
TABLE
2
STYLE
5
1a5
100
AcDbSymbolTable
70
0
0
ENDTAB
0
TABLE
2
VIEW
5
1a6
100
AcDbSymbolTable
70
0
0
ENDTAB
0
TABLE
2
UCS
5
1a7
100
AcDbSymbolTable
70
0
0
ENDTAB
0
TABLE
2
APPID
5
1a8
100
AcDbSymbolTable
70
1
0
APPID
5
1af
100
AcDbSymbolTableRecord
100
AcDbRegAppTableRecord
2
ACAD
70
0
0
ENDTAB
0
TABLE
2
DIMSTYLE
5
1a9
100
AcDbSymbolTable
70
0
100
AcDbDimStyleTable
71
1
0
ENDTAB
0
TABLE
2
BLOCK_RECORD
5
1aa
100
AcDbSymbolTable
70
2
0
BLOCK_RECORD
5
1b0
100
AcDbSymbolTableRecord
100
AcDbBlockTableRecord
2
*Model_Space
70
0
280
1
281
0
0
BLOCK_RECORD
5
1b1
100
AcDbSymbolTableRecord
100
AcDbBlockTableRecord
2
*Paper_Space
70
0
280
1
281
0
0
ENDTAB
0
ENDSEC
0
SECTION
2
BLOCKS
0
BLOCK
5
1b2
100
AcDbEntity
100
AcDbBlockBegin
2
*Model_Space
70
0
10
0
20
0
30
0
3
*Model_Space
1

0
ENDBLK
5
1b3
100
AcDbEntity
100
AcDbBlockEnd
0
BLOCK
5
1b4
100
AcDbEntity
100
AcDbBlockBegin
2
*Paper_Space
70
0
10
0
20
0
30
0
3
*Paper_Space
1

0
ENDBLK
5
1b5
100
AcDbEntity
100
AcDbBlockEnd
0
ENDSEC
0
SECTION
2
ENTITIES
0
LINE
5
1b8
100
AcDbEntity
100
AcDbLine
10
-157.5
20
315.0
30
0.0
11
-100.0
21
315.0
31
0.0
6
Solid
370
100
62
3
0
LINE
5
1ba
100
AcDbEntity
100
AcDbLine
10
-100.0
20
315.0
30
0.0
11
-28.0
21
450.0
31
0.0
6
Solid
370
100
62
3
0
LINE
5
1bc
100
AcDbEntity
100
AcDbLine
10
-28.0
20
450.0
30
0.0
11
28.0
21
450.0
31
0.0
6
Solid
370
100
62
3
0
LINE
5
1be
100
AcDbEntity
100
AcDbLine
10
28.0
20
450.0
30
0.0
11
100.0
21
315.0
31
0.0
6
Solid
370
100
62
3
0
LINE
5
1c0
100
AcDbEntity
100
AcDbLine
10
100.0
20
315.0
30
0.0
11
157.5
21
315.0
31
0.0
6
Solid
370
100
62
3
0
LINE
5
1c2
100
AcDbEntity
100
AcDbLine
10
157.5
20
315.0
30
0.0
11
157.5
21
120.0
31
0.0
6
Solid
370
100
62
3
0
LINE
5
1c4
100
AcDbEntity
100
AcDbLine
10
157.5
20
120.0
30
0.0
11
-157.5
21
120.0
31
0.0
6
Solid
370
100
62
3
0
LINE
5
1c6
100
AcDbEntity
100
AcDbLine
10
-157.5
20
120.0
30
0.0
11
-157.5
21
315.0
31
0.0
6
Solid
370
100
62
3
0
POINT
5
1c8
100
AcDbEntity
100
AcDbPoint
10
-157.5
20
315.0
30
0.0
6
Solid
370
100
62
3
0
LINE
5
1ca
100
AcDbEntity
100
AcDbLine
10
-28.0
20
450.0
30
0.0
11
-20.0
21
465.0
31
0.0
6
Solid
370
100
62
2
0
LINE
5
1cc
100
AcDbEntity
100
AcDbLine
10
-20.0
20
465.0
30
0.0
11
20.0
21
465.0
31
0.0
6
Solid
370
100
62
2
0
LINE
5
1ce
100
AcDbEntity
100
AcDbLine
10
20.0
20
465.0
30
0.0
11
28.0
21
450.0
31
0.0
6
Solid
370
100
62
2
0
LINE
5
1d0
100
AcDbEntity
100
AcDbLine
10
28.0
20
450.0
30
0.0
11
-28.0
21
450.0
31
0.0
6
Solid
370
100
62
2
0
POINT
5
1d2
100
AcDbEntity
100
AcDbPoint
10
-28.0
20
450.0
30
0.0
6
Solid
370
100
62
2
0
LINE
5
1d4
100
AcDbEntity
100
AcDbLine
10
-70.0
20
450.0
30
0.0
11
-80.0
21
440.0
31
0.0
6
Solid
370
100
62
7
0
LINE
5
1d6
100
AcDbEntity
100
AcDbLine
10
-80.0
20
440.0
30
0.0
11
-90.0
21
430.0
31
0.0
6
Solid
370
100
62
7
0
LINE
5
1d8
100
AcDbEntity
100
AcDbLine
10
-90.0
20
430.0
30
0.0
11
-100.0
21
420.0
31
0.0
6
Solid
370
100
62
7
0
LINE
5
1da
100
AcDbEntity
100
AcDbLine
10
-100.0
20
420.0
30
0.0
11
-110.0
21
410.0
31
0.0
6
Solid
370
100
62
7
0
LINE
5
1dc
100
AcDbEntity
100
AcDbLine
10
-110.0
20
410.0
30
0.0
11
-120.0
21
400.0
31
0.0
6
Solid
370
100
62
7
0
LINE
5
1de
100
AcDbEntity
100
AcDbLine
10
-120.0
20
400.0
30
0.0
11
-130.0
21
390.0
31
0.0
6
Solid
370
100
62
7
0
LINE
5
1e0
100
AcDbEntity
100
AcDbLine
10
-130.0
20
390.0
30
0.0
11
-135.5
21
380.0
31
0.0
6
Solid
370
100
62
7
0
LINE
5
1e2
100
AcDbEntity
100
AcDbLine
10
-135.5
20
380.0
30
0.0
11
-141.0
21
370.0
31
0.0
6
Solid
370
100
62
7
0
LINE
5
1e4
100
AcDbEntity
100
AcDbLine
10
-141.0
20
370.0
30
0.0
11
-146.5
21
360.0
31
0.0
6
Solid
370
100
62
7
0
LINE
5
1e6
100
AcDbEntity
100
AcDbLine
10
-146.5
20
360.0
30
0.0
11
-152.0
21
350.0
31
0.0
6
Solid
370
100
62
7
0
LINE
5
1e8
100
AcDbEntity
100
AcDbLine
10
-152.0
20
350.0
30
0.0
11
-157.5
21
340.0
31
0.0
6
Solid
370
100
62
7
0
LINE
5
1ea
100
AcDbEntity
100
AcDbLine
10
-157.5
20
340.0
30
0.0
11
-157.5
21
45.0
31
0.0
6
Solid
370
100
62
7
0
LINE
5
1ec
100
AcDbEntity
100
AcDbLine
10
-157.5
20
45.0
30
0.0
11
-149.5
21
45.0
31
0.0
6
Solid
370
100
62
7
0
LINE
5
1ee
100
AcDbEntity
100
AcDbLine
10
-149.5
20
45.0
30
0.0
11
-122.0
21
10.0
31
0.0
6
Solid
370
100
62
7
0
LINE
5
1f0
100
AcDbEntity
100
AcDbLine
10
-122.0
20
10.0
30
0.0
11
122.0
21
10.0
31
0.0
6
Solid
370
100
62
7
0
LINE
5
1f2
100
AcDbEntity
100
AcDbLine
10
122.0
20
10.0
30
0.0
11
149.5
21
45.0
31
0.0
6
Solid
370
100
62
7
0
LINE
5
1f4
100
AcDbEntity
100
AcDbLine
10
149.5
20
45.0
30
0.0
11
157.5
21
45.0
31
0.0
6
Solid
370
100
62
7
0
LINE
5
1f6
100
AcDbEntity
100
AcDbLine
10
157.5
20
45.0
30
0.0
11
157.5
21
340.0
31
0.0
6
Solid
370
100
62
7
0
LINE
5
1f8
100
AcDbEntity
100
AcDbLine
10
157.5
20
340.0
30
0.0
11
152.0
21
350.0
31
0.0
6
Solid
370
100
62
7
0
LINE
5
1fa
100
AcDbEntity
100
AcDbLine
10
152.0
20
350.0
30
0.0
11
146.5
21
360.0
31
0.0
6
Solid
370
100
62
7
0
LINE
5
1fc
100
AcDbEntity
100
AcDbLine
10
146.5
20
360.0
30
0.0
11
141.0
21
370.0
31
0.0
6
Solid
370
100
62
7
0
LINE
5
1fe
100
AcDbEntity
100
AcDbLine
10
141.0
20
370.0
30
0.0
11
135.5
21
380.0
31
0.0
6
Solid
370
100
62
7
0
LINE
5
200
100
AcDbEntity
100
AcDbLine
10
135.5
20
380.0
30
0.0
11
130.0
21
390.0
31
0.0
6
Solid
370
100
62
7
0
LINE
5
202
100
AcDbEntity
100
AcDbLine
10
130.0
20
390.0
30
0.0
11
120.0
21
400.0
31
0.0
6
Solid
370
100
62
7
0
LINE
5
204
100
AcDbEntity
100
AcDbLine
10
120.0
20
400.0
30
0.0
11
110.0
21
410.0
31
0.0
6
Solid
370
100
62
7
0
LINE
5
206
100
AcDbEntity
100
AcDbLine
10
110.0
20
410.0
30
0.0
11
100.0
21
420.0
31
0.0
6
Solid
370
100
62
7
0
LINE
5
208
100
AcDbEntity
100
AcDbLine
10
100.0
20
420.0
30
0.0
11
90.0
21
430.0
31
0.0
6
Solid
370
100
62
7
0
LINE
5
20a
100
AcDbEntity
100
AcDbLine
10
90.0
20
430.0
30
0.0
11
80.0
21
440.0
31
0.0
6
Solid
370
100
62
7
0
LINE
5
20c
100
AcDbEntity
100
AcDbLine
10
80.0
20
440.0
30
0.0
11
70.0
21
450.0
31
0.0
6
Solid
370
100
62
7
0
LINE
5
20e
100
AcDbEntity
100
AcDbLine
10
70.0
20
450.0
30
0.0
11
-70.0
21
450.0
31
0.0
6
Solid
370
100
62
7
0
POINT
5
210
100
AcDbEntity
100
AcDbPoint
10
-70.0
20
450.0
30
0.0
6
Solid
370
100
62
7
0
LINE
5
212
100
AcDbEntity
100
AcDbLine
10
-78.0
20
490.0
30
0.0
11
-86.1999969482
21
480.0
31
0.0
6
Solid
370
100
62
7
0
LINE
5
214
100
AcDbEntity
100
AcDbLine
10
-86.1999969482
20
480.0
30
0.0
11
-94.4000015259
21
470.0
31
0.0
6
Solid
370
100
62
7
0
LINE
5
216
100
AcDbEntity
100
AcDbLine
10
-94.4000015259
20
470.0
30
0.0
11
-102.5999984741
21
460.0
31
0.0
6
Solid
370
100
62
7
0
LINE
5
218
100
AcDbEntity
100
AcDbLine
10
-102.5999984741
20
460.0
30
0.0
11
-110.8000030518
21
450.0
31
0.0
6
Solid
370
100
62
7
0
LINE
5
21a
100
AcDbEntity
100
AcDbLine
10
-110.8000030518
20
450.0
30
0.0
11
-119.0
21
440.0
31
0.0
6
Solid
370
100
62
7
0
LINE
5
21c
100
AcDbEntity
100
AcDbLine
10
-119.0
20
440.0
30
0.0
11
-127.1999969482
21
430.0
31
0.0
6
Solid
370
100
62
7
0
LINE
5
21e
100
AcDbEntity
100
AcDbLine
10
-127.1999969482
20
430.0
30
0.0
11
-135.3999938965
21
420.0
31
0.0
6
Solid
370
100
62
7
0
LINE
5
220
100
AcDbEntity
100
AcDbLine
10
-135.3999938965
20
420.0
30
0.0
11
-143.6000061035
21
410.0
31
0.0
6
Solid
370
100
62
7
0
LINE
5
222
100
AcDbEntity
100
AcDbLine
10
-143.6000061035
20
410.0
30
0.0
11
-151.8000030518
21
400.0
31
0.0
6
Solid
370
100
62
7
0
LINE
5
224
100
AcDbEntity
100
AcDbLine
10
-151.8000030518
20
400.0
30
0.0
11
-160.0
21
390.0
31
0.0
6
Solid
370
100
62
7
0
LINE
5
226
100
AcDbEntity
100
AcDbLine
10
-160.0
20
390.0
30
0.0
11
-165.3000030518
21
380.0
31
0.0
6
Solid
370
100
62
7
0
LINE
5
228
100
AcDbEntity
100
AcDbLine
10
-165.3000030518
20
380.0
30
0.0
11
-170.6000061035
21
370.0
31
0.0
6
Solid
370
100
62
7
0
LINE
5
22a
100
AcDbEntity
100
AcDbLine
10
-170.6000061035
20
370.0
30
0.0
11
-175.8999938965
21
360.0
31
0.0
6
Solid
370
100
62
7
0
LINE
5
22c
100
AcDbEntity
100
AcDbLine
10
-175.8999938965
20
360.0
30
0.0
11
-181.1999969482
21
350.0
31
0.0
6
Solid
370
100
62
7
0
LINE
5
22e
100
AcDbEntity
100
AcDbLine
10
-181.1999969482
20
350.0
30
0.0
11
-186.5
21
340.0
31
0.0
6
Solid
370
100
62
7
0
LINE
5
230
100
AcDbEntity
100
AcDbLine
10
-186.5
20
340.0
30
0.0
11
-191.8000030518
21
330.0
31
0.0
6
Solid
370
100
62
7
0
LINE
5
232
100
AcDbEntity
100
AcDbLine
10
-191.8000030518
20
330.0
30
0.0
11
-197.1000061035
21
320.0
31
0.0
6
Solid
370
100
62
7
0
LINE
5
234
100
AcDbEntity
100
AcDbLine
10
-197.1000061035
20
320.0
30
0.0
11
-200.0
21
315.0
31
0.0
6
Solid
370
100
62
7
0
LINE
5
236
100
AcDbEntity
100
AcDbLine
10
-200.0
20
315.0
30
0.0
11
-200.0
21
120.0
31
0.0
6
Solid
370
100
62
7
0
LINE
5
238
100
AcDbEntity
100
AcDbLine
10
-200.0
20
120.0
30
0.0
11
-160.0
21
120.0
31
0.0
6
Solid
370
100
62
7
0
LINE
5
23a
100
AcDbEntity
100
AcDbLine
10
-160.0
20
120.0
30
0.0
11
-160.0
21
38.0
31
0.0
6
Solid
370
100
62
7
0
LINE
5
23c
100
AcDbEntity
100
AcDbLine
10
-160.0
20
38.0
30
0.0
11
-127.5
21
0.0
31
0.0
6
Solid
370
100
62
7
0
LINE
5
23e
100
AcDbEntity
100
AcDbLine
10
-127.5
20
0.0
30
0.0
11
127.5
21
0.0
31
0.0
6
Solid
370
100
62
7
0
LINE
5
240
100
AcDbEntity
100
AcDbLine
10
127.5
20
0.0
30
0.0
11
160.0
21
38.0
31
0.0
6
Solid
370
100
62
7
0
LINE
5
242
100
AcDbEntity
100
AcDbLine
10
160.0
20
38.0
30
0.0
11
160.0
21
120.0
31
0.0
6
Solid
370
100
62
7
0
LINE
5
244
100
AcDbEntity
100
AcDbLine
10
160.0
20
120.0
30
0.0
11
200.0
21
120.0
31
0.0
6
Solid
370
100
62
7
0
LINE
5
246
100
AcDbEntity
100
AcDbLine
10
200.0
20
120.0
30
0.0
11
200.0
21
315.0
31
0.0
6
Solid
370
100
62
7
0
LINE
5
248
100
AcDbEntity
100
AcDbLine
10
200.0
20
315.0
30
0.0
11
197.1000061035
21
320.0
31
0.0
6
Solid
370
100
62
7
0
LINE
5
24a
100
AcDbEntity
100
AcDbLine
10
197.1000061035
20
320.0
30
0.0
11
191.8000030518
21
330.0
31
0.0
6
Solid
370
100
62
7
0
LINE
5
24c
100
AcDbEntity
100
AcDbLine
10
191.8000030518
20
330.0
30
0.0
11
186.5
21
340.0
31
0.0
6
Solid
370
100
62
7
0
LINE
5
24e
100
AcDbEntity
100
AcDbLine
10
186.5
20
340.0
30
0.0
11
181.1999969482
21
350.0
31
0.0
6
Solid
370
100
62
7
0
LINE
5
250
100
AcDbEntity
100
AcDbLine
10
181.1999969482
20
350.0
30
0.0
11
175.8999938965
21
360.0
31
0.0
6
Solid
370
100
62
7
0
LINE
5
252
100
AcDbEntity
100
AcDbLine
10
175.8999938965
20
360.0
30
0.0
11
170.6000061035
21
370.0
31
0.0
6
Solid
370
100
62
7
0
LINE
5
254
100
AcDbEntity
100
AcDbLine
10
170.6000061035
20
370.0
30
0.0
11
165.3000030518
21
380.0
31
0.0
6
Solid
370
100
62
7
0
LINE
5
256
100
AcDbEntity
100
AcDbLine
10
165.3000030518
20
380.0
30
0.0
11
160.0
21
390.0
31
0.0
6
Solid
370
100
62
7
0
LINE
5
258
100
AcDbEntity
100
AcDbLine
10
160.0
20
390.0
30
0.0
11
151.8000030518
21
400.0
31
0.0
6
Solid
370
100
62
7
0
LINE
5
25a
100
AcDbEntity
100
AcDbLine
10
151.8000030518
20
400.0
30
0.0
11
143.6000061035
21
410.0
31
0.0
6
Solid
370
100
62
7
0
LINE
5
25c
100
AcDbEntity
100
AcDbLine
10
143.6000061035
20
410.0
30
0.0
11
135.3999938965
21
420.0
31
0.0
6
Solid
370
100
62
7
0
LINE
5
25e
100
AcDbEntity
100
AcDbLine
10
135.3999938965
20
420.0
30
0.0
11
127.1999969482
21
430.0
31
0.0
6
Solid
370
100
62
7
0
LINE
5
260
100
AcDbEntity
100
AcDbLine
10
127.1999969482
20
430.0
30
0.0
11
119.0
21
440.0
31
0.0
6
Solid
370
100
62
7
0
LINE
5
262
100
AcDbEntity
100
AcDbLine
10
119.0
20
440.0
30
0.0
11
110.8000030518
21
450.0
31
0.0
6
Solid
370
100
62
7
0
LINE
5
264
100
AcDbEntity
100
AcDbLine
10
110.8000030518
20
450.0
30
0.0
11
102.5999984741
21
460.0
31
0.0
6
Solid
370
100
62
7
0
LINE
5
266
100
AcDbEntity
100
AcDbLine
10
102.5999984741
20
460.0
30
0.0
11
94.4000015259
21
470.0
31
0.0
6
Solid
370
100
62
7
0
LINE
5
268
100
AcDbEntity
100
AcDbLine
10
94.4000015259
20
470.0
30
0.0
11
86.1999969482
21
480.0
31
0.0
6
Solid
370
100
62
7
0
LINE
5
26a
100
AcDbEntity
100
AcDbLine
10
86.1999969482
20
480.0
30
0.0
11
78.0
21
490.0
31
0.0
6
Solid
370
100
62
7
0
LINE
5
26c
100
AcDbEntity
100
AcDbLine
10
78.0
20
490.0
30
0.0
11
-78.0
21
490.0
31
0.0
6
Solid
370
100
62
7
0
POINT
5
26e
100
AcDbEntity
100
AcDbPoint
10
-78.0
20
490.0
30
0.0
6
Solid
370
100
62
7
0
ENDSEC
0
SECTION
2
OBJECTS
0
DICTIONARY
5
1b6
330
0
100
AcDbDictionary
281
1
3
ACAD_GROUP
350
1b7
0
DICTIONARY
5
1b7
330
1b6
100
AcDbDictionary
281
1
0
ENDSEC
0
EOF
