999
Gabari
0
SECTION
2
HEADER
9
$ACADVER
1
AC1021
9
$HANDSEED
5
d0
0
ENDSEC
0
SECTION
2
CLASSES
0
ENDSEC
0
SECTION
2
TABLES
0
TABLE
2
VPORT
5
2
100
AcDbSymbolTable
70
1
0
VPORT
5
1
100
AcDbSymbolTableRecord
100
AcDbViewportTableRecord
2
*ACTIVE
10
0
20
0
11
1
21
1
12
500.0
22
500.0
40
1000.0
70
0
0
ENDTAB
0
TABLE
2
LTYPE
5
3
100
AcDbSymbolTable
70
3
0
LTYPE
5
b
100
AcDbSymbolTableRecord
100
AcDbLinetypeTableRecord
2
Solid
70
0
72
65
73
0
3

0
LTYPE
5
c
100
AcDbSymbolTableRecord
100
AcDbLinetypeTableRecord
2
ByBlock
70
0
72
65
73
0
3

0
LTYPE
5
d
100
AcDbSymbolTableRecord
100
AcDbLinetypeTableRecord
2
ByLayer
70
0
72
65
73
0
3

0
ENDTAB
0
TABLE
2
LAYER
5
4
100
AcDbSymbolTable
70
1
0
LAYER
5
e
100
AcDbSymbolTableRecord
100
AcDbLayerTableRecord
2
0
70
0
390
0
0
ENDTAB
0
TABLE
2
STYLE
5
5
100
AcDbSymbolTable
70
0
0
ENDTAB
0
TABLE
2
VIEW
5
6
100
AcDbSymbolTable
70
0
0
ENDTAB
0
TABLE
2
UCS
5
7
100
AcDbSymbolTable
70
0
0
ENDTAB
0
TABLE
2
APPID
5
8
100
AcDbSymbolTable
70
1
0
APPID
5
f
100
AcDbSymbolTableRecord
100
AcDbRegAppTableRecord
2
ACAD
70
0
0
ENDTAB
0
TABLE
2
DIMSTYLE
5
9
100
AcDbSymbolTable
70
0
100
AcDbDimStyleTable
71
1
0
ENDTAB
0
TABLE
2
BLOCK_RECORD
5
a
100
AcDbSymbolTable
70
2
0
BLOCK_RECORD
5
10
100
AcDbSymbolTableRecord
100
AcDbBlockTableRecord
2
*Model_Space
70
0
280
1
281
0
0
BLOCK_RECORD
5
11
100
AcDbSymbolTableRecord
100
AcDbBlockTableRecord
2
*Paper_Space
70
0
280
1
281
0
0
ENDTAB
0
ENDSEC
0
SECTION
2
BLOCKS
0
BLOCK
5
12
100
AcDbEntity
100
AcDbBlockBegin
2
*Model_Space
70
0
10
0
20
0
30
0
3
*Model_Space
1

0
ENDBLK
5
13
100
AcDbEntity
100
AcDbBlockEnd
0
BLOCK
5
14
100
AcDbEntity
100
AcDbBlockBegin
2
*Paper_Space
70
0
10
0
20
0
30
0
3
*Paper_Space
1

0
ENDBLK
5
15
100
AcDbEntity
100
AcDbBlockEnd
0
ENDSEC
0
SECTION
2
ENTITIES
0
LINE
5
18
100
AcDbEntity
100
AcDbLine
10
-157.5
20
315.0
30
0.0
11
-100.0
21
315.0
31
0.0
6
Solid
370
100
62
3
0
LINE
5
1a
100
AcDbEntity
100
AcDbLine
10
-100.0
20
315.0
30
0.0
11
-28.0
21
450.0
31
0.0
6
Solid
370
100
62
3
0
LINE
5
1c
100
AcDbEntity
100
AcDbLine
10
-28.0
20
450.0
30
0.0
11
28.0
21
450.0
31
0.0
6
Solid
370
100
62
3
0
LINE
5
1e
100
AcDbEntity
100
AcDbLine
10
28.0
20
450.0
30
0.0
11
100.0
21
315.0
31
0.0
6
Solid
370
100
62
3
0
LINE
5
20
100
AcDbEntity
100
AcDbLine
10
100.0
20
315.0
30
0.0
11
157.5
21
315.0
31
0.0
6
Solid
370
100
62
3
0
LINE
5
22
100
AcDbEntity
100
AcDbLine
10
157.5
20
315.0
30
0.0
11
157.5
21
120.0
31
0.0
6
Solid
370
100
62
3
0
LINE
5
24
100
AcDbEntity
100
AcDbLine
10
157.5
20
120.0
30
0.0
11
-157.5
21
120.0
31
0.0
6
Solid
370
100
62
3
0
LINE
5
26
100
AcDbEntity
100
AcDbLine
10
-157.5
20
120.0
30
0.0
11
-157.5
21
315.0
31
0.0
6
Solid
370
100
62
3
0
POINT
5
28
100
AcDbEntity
100
AcDbPoint
10
-157.5
20
315.0
30
0.0
6
Solid
370
100
62
3
0
LINE
5
2a
100
AcDbEntity
100
AcDbLine
10
-28.0
20
450.0
30
0.0
11
-20.0
21
465.0
31
0.0
6
Solid
370
100
62
2
0
LINE
5
2c
100
AcDbEntity
100
AcDbLine
10
-20.0
20
465.0
30
0.0
11
20.0
21
465.0
31
0.0
6
Solid
370
100
62
2
0
LINE
5
2e
100
AcDbEntity
100
AcDbLine
10
20.0
20
465.0
30
0.0
11
28.0
21
450.0
31
0.0
6
Solid
370
100
62
2
0
LINE
5
30
100
AcDbEntity
100
AcDbLine
10
28.0
20
450.0
30
0.0
11
-28.0
21
450.0
31
0.0
6
Solid
370
100
62
2
0
POINT
5
32
100
AcDbEntity
100
AcDbPoint
10
-28.0
20
450.0
30
0.0
6
Solid
370
100
62
2
0
LINE
5
34
100
AcDbEntity
100
AcDbLine
10
-70.0
20
450.0
30
0.0
11
-80.0
21
440.0
31
0.0
6
Solid
370
100
62
7
0
LINE
5
36
100
AcDbEntity
100
AcDbLine
10
-80.0
20
440.0
30
0.0
11
-90.0
21
430.0
31
0.0
6
Solid
370
100
62
7
0
LINE
5
38
100
AcDbEntity
100
AcDbLine
10
-90.0
20
430.0
30
0.0
11
-100.0
21
420.0
31
0.0
6
Solid
370
100
62
7
0
LINE
5
3a
100
AcDbEntity
100
AcDbLine
10
-100.0
20
420.0
30
0.0
11
-110.0
21
410.0
31
0.0
6
Solid
370
100
62
7
0
LINE
5
3c
100
AcDbEntity
100
AcDbLine
10
-110.0
20
410.0
30
0.0
11
-120.0
21
400.0
31
0.0
6
Solid
370
100
62
7
0
LINE
5
3e
100
AcDbEntity
100
AcDbLine
10
-120.0
20
400.0
30
0.0
11
-130.0
21
390.0
31
0.0
6
Solid
370
100
62
7
0
LINE
5
40
100
AcDbEntity
100
AcDbLine
10
-130.0
20
390.0
30
0.0
11
-135.5
21
380.0
31
0.0
6
Solid
370
100
62
7
0
LINE
5
42
100
AcDbEntity
100
AcDbLine
10
-135.5
20
380.0
30
0.0
11
-141.0
21
370.0
31
0.0
6
Solid
370
100
62
7
0
LINE
5
44
100
AcDbEntity
100
AcDbLine
10
-141.0
20
370.0
30
0.0
11
-146.5
21
360.0
31
0.0
6
Solid
370
100
62
7
0
LINE
5
46
100
AcDbEntity
100
AcDbLine
10
-146.5
20
360.0
30
0.0
11
-152.0
21
350.0
31
0.0
6
Solid
370
100
62
7
0
LINE
5
48
100
AcDbEntity
100
AcDbLine
10
-152.0
20
350.0
30
0.0
11
-157.5
21
340.0
31
0.0
6
Solid
370
100
62
7
0
LINE
5
4a
100
AcDbEntity
100
AcDbLine
10
-157.5
20
340.0
30
0.0
11
-157.5
21
45.0
31
0.0
6
Solid
370
100
62
7
0
LINE
5
4c
100
AcDbEntity
100
AcDbLine
10
-157.5
20
45.0
30
0.0
11
-149.5
21
45.0
31
0.0
6
Solid
370
100
62
7
0
LINE
5
4e
100
AcDbEntity
100
AcDbLine
10
-149.5
20
45.0
30
0.0
11
-122.0
21
10.0
31
0.0
6
Solid
370
100
62
7
0
LINE
5
50
100
AcDbEntity
100
AcDbLine
10
-122.0
20
10.0
30
0.0
11
122.0
21
10.0
31
0.0
6
Solid
370
100
62
7
0
LINE
5
52
100
AcDbEntity
100
AcDbLine
10
122.0
20
10.0
30
0.0
11
149.5
21
45.0
31
0.0
6
Solid
370
100
62
7
0
LINE
5
54
100
AcDbEntity
100
AcDbLine
10
149.5
20
45.0
30
0.0
11
157.5
21
45.0
31
0.0
6
Solid
370
100
62
7
0
LINE
5
56
100
AcDbEntity
100
AcDbLine
10
157.5
20
45.0
30
0.0
11
157.5
21
340.0
31
0.0
6
Solid
370
100
62
7
0
LINE
5
58
100
AcDbEntity
100
AcDbLine
10
157.5
20
340.0
30
0.0
11
152.0
21
350.0
31
0.0
6
Solid
370
100
62
7
0
LINE
5
5a
100
AcDbEntity
100
AcDbLine
10
152.0
20
350.0
30
0.0
11
146.5
21
360.0
31
0.0
6
Solid
370
100
62
7
0
LINE
5
5c
100
AcDbEntity
100
AcDbLine
10
146.5
20
360.0
30
0.0
11
141.0
21
370.0
31
0.0
6
Solid
370
100
62
7
0
LINE
5
5e
100
AcDbEntity
100
AcDbLine
10
141.0
20
370.0
30
0.0
11
135.5
21
380.0
31
0.0
6
Solid
370
100
62
7
0
LINE
5
60
100
AcDbEntity
100
AcDbLine
10
135.5
20
380.0
30
0.0
11
130.0
21
390.0
31
0.0
6
Solid
370
100
62
7
0
LINE
5
62
100
AcDbEntity
100
AcDbLine
10
130.0
20
390.0
30
0.0
11
120.0
21
400.0
31
0.0
6
Solid
370
100
62
7
0
LINE
5
64
100
AcDbEntity
100
AcDbLine
10
120.0
20
400.0
30
0.0
11
110.0
21
410.0
31
0.0
6
Solid
370
100
62
7
0
LINE
5
66
100
AcDbEntity
100
AcDbLine
10
110.0
20
410.0
30
0.0
11
100.0
21
420.0
31
0.0
6
Solid
370
100
62
7
0
LINE
5
68
100
AcDbEntity
100
AcDbLine
10
100.0
20
420.0
30
0.0
11
90.0
21
430.0
31
0.0
6
Solid
370
100
62
7
0
LINE
5
6a
100
AcDbEntity
100
AcDbLine
10
90.0
20
430.0
30
0.0
11
80.0
21
440.0
31
0.0
6
Solid
370
100
62
7
0
LINE
5
6c
100
AcDbEntity
100
AcDbLine
10
80.0
20
440.0
30
0.0
11
70.0
21
450.0
31
0.0
6
Solid
370
100
62
7
0
LINE
5
6e
100
AcDbEntity
100
AcDbLine
10
70.0
20
450.0
30
0.0
11
-70.0
21
450.0
31
0.0
6
Solid
370
100
62
7
0
POINT
5
70
100
AcDbEntity
100
AcDbPoint
10
-70.0
20
450.0
30
0.0
6
Solid
370
100
62
7
0
LINE
5
72
100
AcDbEntity
100
AcDbLine
10
-78.0
20
490.0
30
0.0
11
-86.1999969482
21
480.0
31
0.0
6
Solid
370
100
62
7
0
LINE
5
74
100
AcDbEntity
100
AcDbLine
10
-86.1999969482
20
480.0
30
0.0
11
-94.4000015259
21
470.0
31
0.0
6
Solid
370
100
62
7
0
LINE
5
76
100
AcDbEntity
100
AcDbLine
10
-94.4000015259
20
470.0
30
0.0
11
-102.5999984741
21
460.0
31
0.0
6
Solid
370
100
62
7
0
LINE
5
78
100
AcDbEntity
100
AcDbLine
10
-102.5999984741
20
460.0
30
0.0
11
-110.8000030518
21
450.0
31
0.0
6
Solid
370
100
62
7
0
LINE
5
7a
100
AcDbEntity
100
AcDbLine
10
-110.8000030518
20
450.0
30
0.0
11
-119.0
21
440.0
31
0.0
6
Solid
370
100
62
7
0
LINE
5
7c
100
AcDbEntity
100
AcDbLine
10
-119.0
20
440.0
30
0.0
11
-127.1999969482
21
430.0
31
0.0
6
Solid
370
100
62
7
0
LINE
5
7e
100
AcDbEntity
100
AcDbLine
10
-127.1999969482
20
430.0
30
0.0
11
-135.3999938965
21
420.0
31
0.0
6
Solid
370
100
62
7
0
LINE
5
80
100
AcDbEntity
100
AcDbLine
10
-135.3999938965
20
420.0
30
0.0
11
-143.6000061035
21
410.0
31
0.0
6
Solid
370
100
62
7
0
LINE
5
82
100
AcDbEntity
100
AcDbLine
10
-143.6000061035
20
410.0
30
0.0
11
-151.8000030518
21
400.0
31
0.0
6
Solid
370
100
62
7
0
LINE
5
84
100
AcDbEntity
100
AcDbLine
10
-151.8000030518
20
400.0
30
0.0
11
-160.0
21
390.0
31
0.0
6
Solid
370
100
62
7
0
LINE
5
86
100
AcDbEntity
100
AcDbLine
10
-160.0
20
390.0
30
0.0
11
-165.3000030518
21
380.0
31
0.0
6
Solid
370
100
62
7
0
LINE
5
88
100
AcDbEntity
100
AcDbLine
10
-165.3000030518
20
380.0
30
0.0
11
-170.6000061035
21
370.0
31
0.0
6
Solid
370
100
62
7
0
LINE
5
8a
100
AcDbEntity
100
AcDbLine
10
-170.6000061035
20
370.0
30
0.0
11
-175.8999938965
21
360.0
31
0.0
6
Solid
370
100
62
7
0
LINE
5
8c
100
AcDbEntity
100
AcDbLine
10
-175.8999938965
20
360.0
30
0.0
11
-181.1999969482
21
350.0
31
0.0
6
Solid
370
100
62
7
0
LINE
5
8e
100
AcDbEntity
100
AcDbLine
10
-181.1999969482
20
350.0
30
0.0
11
-186.5
21
340.0
31
0.0
6
Solid
370
100
62
7
0
LINE
5
90
100
AcDbEntity
100
AcDbLine
10
-186.5
20
340.0
30
0.0
11
-191.8000030518
21
330.0
31
0.0
6
Solid
370
100
62
7
0
LINE
5
92
100
AcDbEntity
100
AcDbLine
10
-191.8000030518
20
330.0
30
0.0
11
-197.1000061035
21
320.0
31
0.0
6
Solid
370
100
62
7
0
LINE
5
94
100
AcDbEntity
100
AcDbLine
10
-197.1000061035
20
320.0
30
0.0
11
-200.0
21
315.0
31
0.0
6
Solid
370
100
62
7
0
LINE
5
96
100
AcDbEntity
100
AcDbLine
10
-200.0
20
315.0
30
0.0
11
-200.0
21
120.0
31
0.0
6
Solid
370
100
62
7
0
LINE
5
98
100
AcDbEntity
100
AcDbLine
10
-200.0
20
120.0
30
0.0
11
-160.0
21
120.0
31
0.0
6
Solid
370
100
62
7
0
LINE
5
9a
100
AcDbEntity
100
AcDbLine
10
-160.0
20
120.0
30
0.0
11
-160.0
21
38.0
31
0.0
6
Solid
370
100
62
7
0
LINE
5
9c
100
AcDbEntity
100
AcDbLine
10
-160.0
20
38.0
30
0.0
11
-127.5
21
0.0
31
0.0
6
Solid
370
100
62
7
0
LINE
5
9e
100
AcDbEntity
100
AcDbLine
10
-127.5
20
0.0
30
0.0
11
127.5
21
0.0
31
0.0
6
Solid
370
100
62
7
0
LINE
5
a0
100
AcDbEntity
100
AcDbLine
10
127.5
20
0.0
30
0.0
11
160.0
21
38.0
31
0.0
6
Solid
370
100
62
7
0
LINE
5
a2
100
AcDbEntity
100
AcDbLine
10
160.0
20
38.0
30
0.0
11
160.0
21
120.0
31
0.0
6
Solid
370
100
62
7
0
LINE
5
a4
100
AcDbEntity
100
AcDbLine
10
160.0
20
120.0
30
0.0
11
200.0
21
120.0
31
0.0
6
Solid
370
100
62
7
0
LINE
5
a6
100
AcDbEntity
100
AcDbLine
10
200.0
20
120.0
30
0.0
11
200.0
21
315.0
31
0.0
6
Solid
370
100
62
7
0
LINE
5
a8
100
AcDbEntity
100
AcDbLine
10
200.0
20
315.0
30
0.0
11
197.1000061035
21
320.0
31
0.0
6
Solid
370
100
62
7
0
LINE
5
aa
100
AcDbEntity
100
AcDbLine
10
197.1000061035
20
320.0
30
0.0
11
191.8000030518
21
330.0
31
0.0
6
Solid
370
100
62
7
0
LINE
5
ac
100
AcDbEntity
100
AcDbLine
10
191.8000030518
20
330.0
30
0.0
11
186.5
21
340.0
31
0.0
6
Solid
370
100
62
7
0
LINE
5
ae
100
AcDbEntity
100
AcDbLine
10
186.5
20
340.0
30
0.0
11
181.1999969482
21
350.0
31
0.0
6
Solid
370
100
62
7
0
LINE
5
b0
100
AcDbEntity
100
AcDbLine
10
181.1999969482
20
350.0
30
0.0
11
175.8999938965
21
360.0
31
0.0
6
Solid
370
100
62
7
0
LINE
5
b2
100
AcDbEntity
100
AcDbLine
10
175.8999938965
20
360.0
30
0.0
11
170.6000061035
21
370.0
31
0.0
6
Solid
370
100
62
7
0
LINE
5
b4
100
AcDbEntity
100
AcDbLine
10
170.6000061035
20
370.0
30
0.0
11
165.3000030518
21
380.0
31
0.0
6
Solid
370
100
62
7
0
LINE
5
b6
100
AcDbEntity
100
AcDbLine
10
165.3000030518
20
380.0
30
0.0
11
160.0
21
390.0
31
0.0
6
Solid
370
100
62
7
0
LINE
5
b8
100
AcDbEntity
100
AcDbLine
10
160.0
20
390.0
30
0.0
11
151.8000030518
21
400.0
31
0.0
6
Solid
370
100
62
7
0
LINE
5
ba
100
AcDbEntity
100
AcDbLine
10
151.8000030518
20
400.0
30
0.0
11
143.6000061035
21
410.0
31
0.0
6
Solid
370
100
62
7
0
LINE
5
bc
100
AcDbEntity
100
AcDbLine
10
143.6000061035
20
410.0
30
0.0
11
135.3999938965
21
420.0
31
0.0
6
Solid
370
100
62
7
0
LINE
5
be
100
AcDbEntity
100
AcDbLine
10
135.3999938965
20
420.0
30
0.0
11
127.1999969482
21
430.0
31
0.0
6
Solid
370
100
62
7
0
LINE
5
c0
100
AcDbEntity
100
AcDbLine
10
127.1999969482
20
430.0
30
0.0
11
119.0
21
440.0
31
0.0
6
Solid
370
100
62
7
0
LINE
5
c2
100
AcDbEntity
100
AcDbLine
10
119.0
20
440.0
30
0.0
11
110.8000030518
21
450.0
31
0.0
6
Solid
370
100
62
7
0
LINE
5
c4
100
AcDbEntity
100
AcDbLine
10
110.8000030518
20
450.0
30
0.0
11
102.5999984741
21
460.0
31
0.0
6
Solid
370
100
62
7
0
LINE
5
c6
100
AcDbEntity
100
AcDbLine
10
102.5999984741
20
460.0
30
0.0
11
94.4000015259
21
470.0
31
0.0
6
Solid
370
100
62
7
0
LINE
5
c8
100
AcDbEntity
100
AcDbLine
10
94.4000015259
20
470.0
30
0.0
11
86.1999969482
21
480.0
31
0.0
6
Solid
370
100
62
7
0
LINE
5
ca
100
AcDbEntity
100
AcDbLine
10
86.1999969482
20
480.0
30
0.0
11
78.0
21
490.0
31
0.0
6
Solid
370
100
62
7
0
LINE
5
cc
100
AcDbEntity
100
AcDbLine
10
78.0
20
490.0
30
0.0
11
-78.0
21
490.0
31
0.0
6
Solid
370
100
62
7
0
POINT
5
ce
100
AcDbEntity
100
AcDbPoint
10
-78.0
20
490.0
30
0.0
6
Solid
370
100
62
7
0
ENDSEC
0
SECTION
2
OBJECTS
0
DICTIONARY
5
16
330
0
100
AcDbDictionary
281
1
3
ACAD_GROUP
350
17
0
DICTIONARY
5
17
330
16
100
AcDbDictionary
281
1
0
ENDSEC
0
EOF
