999
Gabari
0
SECTION
2
HEADER
9
$ACADVER
1
AC1021
9
$HANDSEED
5
1a1
0
ENDSEC
0
SECTION
2
CLASSES
0
ENDSEC
0
SECTION
2
TABLES
0
TABLE
2
VPORT
5
d1
100
AcDbSymbolTable
70
1
0
VPORT
5
d0
100
AcDbSymbolTableRecord
100
AcDbViewportTableRecord
2
*ACTIVE
10
0
20
0
11
1
21
1
12
500.0
22
500.0
40
1000.0
70
0
0
ENDTAB
0
TABLE
2
LTYPE
5
d2
100
AcDbSymbolTable
70
3
0
LTYPE
5
da
100
AcDbSymbolTableRecord
100
AcDbLinetypeTableRecord
2
Solid
70
0
72
65
73
0
3

0
LTYPE
5
db
100
AcDbSymbolTableRecord
100
AcDbLinetypeTableRecord
2
ByBlock
70
0
72
65
73
0
3

0
LTYPE
5
dc
100
AcDbSymbolTableRecord
100
AcDbLinetypeTableRecord
2
ByLayer
70
0
72
65
73
0
3

0
ENDTAB
0
TABLE
2
LAYER
5
d3
100
AcDbSymbolTable
70
1
0
LAYER
5
dd
100
AcDbSymbolTableRecord
100
AcDbLayerTableRecord
2
0
70
0
390
0
0
ENDTAB
0
TABLE
2
STYLE
5
d4
100
AcDbSymbolTable
70
0
0
ENDTAB
0
TABLE
2
VIEW
5
d5
100
AcDbSymbolTable
70
0
0
ENDTAB
0
TABLE
2
UCS
5
d6
100
AcDbSymbolTable
70
0
0
ENDTAB
0
TABLE
2
APPID
5
d7
100
AcDbSymbolTable
70
1
0
APPID
5
de
100
AcDbSymbolTableRecord
100
AcDbRegAppTableRecord
2
ACAD
70
0
0
ENDTAB
0
TABLE
2
DIMSTYLE
5
d8
100
AcDbSymbolTable
70
0
100
AcDbDimStyleTable
71
1
0
ENDTAB
0
TABLE
2
BLOCK_RECORD
5
d9
100
AcDbSymbolTable
70
2
0
BLOCK_RECORD
5
df
100
AcDbSymbolTableRecord
100
AcDbBlockTableRecord
2
*Model_Space
70
0
280
1
281
0
0
BLOCK_RECORD
5
e0
100
AcDbSymbolTableRecord
100
AcDbBlockTableRecord
2
*Paper_Space
70
0
280
1
281
0
0
ENDTAB
0
ENDSEC
0
SECTION
2
BLOCKS
0
BLOCK
5
e1
100
AcDbEntity
100
AcDbBlockBegin
2
*Model_Space
70
0
10
0
20
0
30
0
3
*Model_Space
1

0
ENDBLK
5
e2
100
AcDbEntity
100
AcDbBlockEnd
0
BLOCK
5
e3
100
AcDbEntity
100
AcDbBlockBegin
2
*Paper_Space
70
0
10
0
20
0
30
0
3
*Paper_Space
1

0
ENDBLK
5
e4
100
AcDbEntity
100
AcDbBlockEnd
0
ENDSEC
0
SECTION
2
ENTITIES
0
LINE
5
e7
100
AcDbEntity
100
AcDbLine
10
-157.5
20
315.0
30
0.0
11
-100.0
21
315.0
31
0.0
6
Solid
370
100
62
3
0
LINE
5
e9
100
AcDbEntity
100
AcDbLine
10
-100.0
20
315.0
30
0.0
11
-20.0
21
465.0
31
0.0
6
Solid
370
100
62
3
0
LINE
5
eb
100
AcDbEntity
100
AcDbLine
10
-20.0
20
465.0
30
0.0
11
20.0
21
465.0
31
0.0
6
Solid
370
100
62
3
0
LINE
5
ed
100
AcDbEntity
100
AcDbLine
10
20.0
20
465.0
30
0.0
11
100.0
21
315.0
31
0.0
6
Solid
370
100
62
3
0
LINE
5
ef
100
AcDbEntity
100
AcDbLine
10
100.0
20
315.0
30
0.0
11
157.5
21
315.0
31
0.0
6
Solid
370
100
62
3
0
LINE
5
f1
100
AcDbEntity
100
AcDbLine
10
157.5
20
315.0
30
0.0
11
157.5
21
120.0
31
0.0
6
Solid
370
100
62
3
0
LINE
5
f3
100
AcDbEntity
100
AcDbLine
10
157.5
20
120.0
30
0.0
11
-157.5
21
120.0
31
0.0
6
Solid
370
100
62
3
0
LINE
5
f5
100
AcDbEntity
100
AcDbLine
10
-157.5
20
120.0
30
0.0
11
-157.5
21
315.0
31
0.0
6
Solid
370
100
62
3
0
POINT
5
f7
100
AcDbEntity
100
AcDbPoint
10
-157.5
20
315.0
30
0.0
6
Solid
370
100
62
3
0
LINE
5
f9
100
AcDbEntity
100
AcDbLine
10
-70.0
20
500.0
30
0.0
11
-80.0
21
490.0
31
0.0
6
Solid
370
100
62
7
0
LINE
5
fb
100
AcDbEntity
100
AcDbLine
10
-80.0
20
490.0
30
0.0
11
-90.0
21
480.0
31
0.0
6
Solid
370
100
62
7
0
LINE
5
fd
100
AcDbEntity
100
AcDbLine
10
-90.0
20
480.0
30
0.0
11
-100.0
21
470.0
31
0.0
6
Solid
370
100
62
7
0
LINE
5
ff
100
AcDbEntity
100
AcDbLine
10
-100.0
20
470.0
30
0.0
11
-110.0
21
460.0
31
0.0
6
Solid
370
100
62
7
0
LINE
5
101
100
AcDbEntity
100
AcDbLine
10
-110.0
20
460.0
30
0.0
11
-120.0
21
450.0
31
0.0
6
Solid
370
100
62
7
0
LINE
5
103
100
AcDbEntity
100
AcDbLine
10
-120.0
20
450.0
30
0.0
11
-130.0
21
440.0
31
0.0
6
Solid
370
100
62
7
0
LINE
5
105
100
AcDbEntity
100
AcDbLine
10
-130.0
20
440.0
30
0.0
11
-135.5
21
430.0
31
0.0
6
Solid
370
100
62
7
0
LINE
5
107
100
AcDbEntity
100
AcDbLine
10
-135.5
20
430.0
30
0.0
11
-141.0
21
420.0
31
0.0
6
Solid
370
100
62
7
0
LINE
5
109
100
AcDbEntity
100
AcDbLine
10
-141.0
20
420.0
30
0.0
11
-146.5
21
410.0
31
0.0
6
Solid
370
100
62
7
0
LINE
5
10b
100
AcDbEntity
100
AcDbLine
10
-146.5
20
410.0
30
0.0
11
-152.0
21
400.0
31
0.0
6
Solid
370
100
62
7
0
LINE
5
10d
100
AcDbEntity
100
AcDbLine
10
-152.0
20
400.0
30
0.0
11
-157.5
21
390.0
31
0.0
6
Solid
370
100
62
7
0
LINE
5
10f
100
AcDbEntity
100
AcDbLine
10
-157.5
20
390.0
30
0.0
11
-157.5
21
45.0
31
0.0
6
Solid
370
100
62
7
0
LINE
5
111
100
AcDbEntity
100
AcDbLine
10
-157.5
20
45.0
30
0.0
11
-149.5
21
45.0
31
0.0
6
Solid
370
100
62
7
0
LINE
5
113
100
AcDbEntity
100
AcDbLine
10
-149.5
20
45.0
30
0.0
11
-122.0
21
10.0
31
0.0
6
Solid
370
100
62
7
0
LINE
5
115
100
AcDbEntity
100
AcDbLine
10
-122.0
20
10.0
30
0.0
11
122.0
21
10.0
31
0.0
6
Solid
370
100
62
7
0
LINE
5
117
100
AcDbEntity
100
AcDbLine
10
122.0
20
10.0
30
0.0
11
149.5
21
45.0
31
0.0
6
Solid
370
100
62
7
0
LINE
5
119
100
AcDbEntity
100
AcDbLine
10
149.5
20
45.0
30
0.0
11
157.5
21
45.0
31
0.0
6
Solid
370
100
62
7
0
LINE
5
11b
100
AcDbEntity
100
AcDbLine
10
157.5
20
45.0
30
0.0
11
157.5
21
390.0
31
0.0
6
Solid
370
100
62
7
0
LINE
5
11d
100
AcDbEntity
100
AcDbLine
10
157.5
20
390.0
30
0.0
11
152.0
21
400.0
31
0.0
6
Solid
370
100
62
7
0
LINE
5
11f
100
AcDbEntity
100
AcDbLine
10
152.0
20
400.0
30
0.0
11
146.5
21
410.0
31
0.0
6
Solid
370
100
62
7
0
LINE
5
121
100
AcDbEntity
100
AcDbLine
10
146.5
20
410.0
30
0.0
11
141.0
21
420.0
31
0.0
6
Solid
370
100
62
7
0
LINE
5
123
100
AcDbEntity
100
AcDbLine
10
141.0
20
420.0
30
0.0
11
135.5
21
430.0
31
0.0
6
Solid
370
100
62
7
0
LINE
5
125
100
AcDbEntity
100
AcDbLine
10
135.5
20
430.0
30
0.0
11
130.0
21
440.0
31
0.0
6
Solid
370
100
62
7
0
LINE
5
127
100
AcDbEntity
100
AcDbLine
10
130.0
20
440.0
30
0.0
11
120.0
21
450.0
31
0.0
6
Solid
370
100
62
7
0
LINE
5
129
100
AcDbEntity
100
AcDbLine
10
120.0
20
450.0
30
0.0
11
110.0
21
460.0
31
0.0
6
Solid
370
100
62
7
0
LINE
5
12b
100
AcDbEntity
100
AcDbLine
10
110.0
20
460.0
30
0.0
11
100.0
21
470.0
31
0.0
6
Solid
370
100
62
7
0
LINE
5
12d
100
AcDbEntity
100
AcDbLine
10
100.0
20
470.0
30
0.0
11
90.0
21
480.0
31
0.0
6
Solid
370
100
62
7
0
LINE
5
12f
100
AcDbEntity
100
AcDbLine
10
90.0
20
480.0
30
0.0
11
80.0
21
490.0
31
0.0
6
Solid
370
100
62
7
0
LINE
5
131
100
AcDbEntity
100
AcDbLine
10
80.0
20
490.0
30
0.0
11
70.0
21
500.0
31
0.0
6
Solid
370
100
62
7
0
LINE
5
133
100
AcDbEntity
100
AcDbLine
10
70.0
20
500.0
30
0.0
11
-70.0
21
500.0
31
0.0
6
Solid
370
100
62
7
0
POINT
5
135
100
AcDbEntity
100
AcDbPoint
10
-70.0
20
500.0
30
0.0
6
Solid
370
100
62
7
0
LINE
5
137
100
AcDbEntity
100
AcDbLine
10
-78.0
20
540.0
30
0.0
11
-86.1999969482
21
530.0
31
0.0
6
Solid
370
100
62
7
0
LINE
5
139
100
AcDbEntity
100
AcDbLine
10
-86.1999969482
20
530.0
30
0.0
11
-94.4000015259
21
520.0
31
0.0
6
Solid
370
100
62
7
0
LINE
5
13b
100
AcDbEntity
100
AcDbLine
10
-94.4000015259
20
520.0
30
0.0
11
-102.5999984741
21
510.0
31
0.0
6
Solid
370
100
62
7
0
LINE
5
13d
100
AcDbEntity
100
AcDbLine
10
-102.5999984741
20
510.0
30
0.0
11
-110.8000030518
21
500.0
31
0.0
6
Solid
370
100
62
7
0
LINE
5
13f
100
AcDbEntity
100
AcDbLine
10
-110.8000030518
20
500.0
30
0.0
11
-119.0
21
490.0
31
0.0
6
Solid
370
100
62
7
0
LINE
5
141
100
AcDbEntity
100
AcDbLine
10
-119.0
20
490.0
30
0.0
11
-127.1999969482
21
480.0
31
0.0
6
Solid
370
100
62
7
0
LINE
5
143
100
AcDbEntity
100
AcDbLine
10
-127.1999969482
20
480.0
30
0.0
11
-135.3999938965
21
470.0
31
0.0
6
Solid
370
100
62
7
0
LINE
5
145
100
AcDbEntity
100
AcDbLine
10
-135.3999938965
20
470.0
30
0.0
11
-143.6000061035
21
460.0
31
0.0
6
Solid
370
100
62
7
0
LINE
5
147
100
AcDbEntity
100
AcDbLine
10
-143.6000061035
20
460.0
30
0.0
11
-151.8000030518
21
450.0
31
0.0
6
Solid
370
100
62
7
0
LINE
5
149
100
AcDbEntity
100
AcDbLine
10
-151.8000030518
20
450.0
30
0.0
11
-160.0
21
440.0
31
0.0
6
Solid
370
100
62
7
0
LINE
5
14b
100
AcDbEntity
100
AcDbLine
10
-160.0
20
440.0
30
0.0
11
-165.3000030518
21
430.0
31
0.0
6
Solid
370
100
62
7
0
LINE
5
14d
100
AcDbEntity
100
AcDbLine
10
-165.3000030518
20
430.0
30
0.0
11
-170.6000061035
21
420.0
31
0.0
6
Solid
370
100
62
7
0
LINE
5
14f
100
AcDbEntity
100
AcDbLine
10
-170.6000061035
20
420.0
30
0.0
11
-175.8999938965
21
410.0
31
0.0
6
Solid
370
100
62
7
0
LINE
5
151
100
AcDbEntity
100
AcDbLine
10
-175.8999938965
20
410.0
30
0.0
11
-181.1999969482
21
400.0
31
0.0
6
Solid
370
100
62
7
0
LINE
5
153
100
AcDbEntity
100
AcDbLine
10
-181.1999969482
20
400.0
30
0.0
11
-186.5
21
390.0
31
0.0
6
Solid
370
100
62
7
0
LINE
5
155
100
AcDbEntity
100
AcDbLine
10
-186.5
20
390.0
30
0.0
11
-191.8000030518
21
380.0
31
0.0
6
Solid
370
100
62
7
0
LINE
5
157
100
AcDbEntity
100
AcDbLine
10
-191.8000030518
20
380.0
30
0.0
11
-197.1000061035
21
370.0
31
0.0
6
Solid
370
100
62
7
0
LINE
5
159
100
AcDbEntity
100
AcDbLine
10
-197.1000061035
20
370.0
30
0.0
11
-200.0
21
360.0
31
0.0
6
Solid
370
100
62
7
0
LINE
5
15b
100
AcDbEntity
100
AcDbLine
10
-200.0
20
360.0
30
0.0
11
-200.0
21
112.0
31
0.0
6
Solid
370
100
62
7
0
POINT
5
15d
100
AcDbEntity
100
AcDbPoint
10
-200.0
20
112.0
30
0.0
6
Solid
370
100
62
7
0
LINE
5
15f
100
AcDbEntity
100
AcDbLine
10
-200.0
20
112.0
30
0.0
11
-200.0
21
76.0
31
0.0
6
Solid
370
100
62
7
0
LINE
5
161
100
AcDbEntity
100
AcDbLine
10
-200.0
20
76.0
30
0.0
11
-170.0
21
76.0
31
0.0
6
Solid
370
100
62
7
0
LINE
5
163
100
AcDbEntity
100
AcDbLine
10
-170.0
20
76.0
30
0.0
11
-170.0
21
38.0
31
0.0
6
Solid
370
100
62
7
0
LINE
5
165
100
AcDbEntity
100
AcDbLine
10
-170.0
20
38.0
30
0.0
11
-160.0
21
38.0
31
0.0
6
Solid
370
100
62
7
0
LINE
5
167
100
AcDbEntity
100
AcDbLine
10
-160.0
20
38.0
30
0.0
11
-127.5
21
0.0
31
0.0
6
Solid
370
100
62
7
0
LINE
5
169
100
AcDbEntity
100
AcDbLine
10
-127.5
20
0.0
30
0.0
11
127.5
21
0.0
31
0.0
6
Solid
370
100
62
7
0
LINE
5
16b
100
AcDbEntity
100
AcDbLine
10
127.5
20
0.0
30
0.0
11
160.0
21
38.0
31
0.0
6
Solid
370
100
62
7
0
LINE
5
16d
100
AcDbEntity
100
AcDbLine
10
160.0
20
38.0
30
0.0
11
170.0
21
38.0
31
0.0
6
Solid
370
100
62
7
0
LINE
5
16f
100
AcDbEntity
100
AcDbLine
10
170.0
20
38.0
30
0.0
11
170.0
21
76.0
31
0.0
6
Solid
370
100
62
7
0
POINT
5
171
100
AcDbEntity
100
AcDbPoint
10
170.0
20
76.0
30
0.0
6
Solid
370
100
62
7
0
LINE
5
173
100
AcDbEntity
100
AcDbLine
10
170.0
20
76.0
30
0.0
11
170.0
21
112.0
31
0.0
6
Solid
370
100
62
7
0
LINE
5
175
100
AcDbEntity
100
AcDbLine
10
170.0
20
112.0
30
0.0
11
200.0
21
112.0
31
0.0
6
Solid
370
100
62
7
0
LINE
5
177
100
AcDbEntity
100
AcDbLine
10
200.0
20
112.0
30
0.0
11
200.0
21
360.0
31
0.0
6
Solid
370
100
62
7
0
LINE
5
179
100
AcDbEntity
100
AcDbLine
10
200.0
20
360.0
30
0.0
11
197.1000061035
21
370.0
31
0.0
6
Solid
370
100
62
7
0
LINE
5
17b
100
AcDbEntity
100
AcDbLine
10
197.1000061035
20
370.0
30
0.0
11
191.8000030518
21
380.0
31
0.0
6
Solid
370
100
62
7
0
LINE
5
17d
100
AcDbEntity
100
AcDbLine
10
191.8000030518
20
380.0
30
0.0
11
186.5
21
390.0
31
0.0
6
Solid
370
100
62
7
0
LINE
5
17f
100
AcDbEntity
100
AcDbLine
10
186.5
20
390.0
30
0.0
11
181.1999969482
21
400.0
31
0.0
6
Solid
370
100
62
7
0
LINE
5
181
100
AcDbEntity
100
AcDbLine
10
181.1999969482
20
400.0
30
0.0
11
175.8999938965
21
410.0
31
0.0
6
Solid
370
100
62
7
0
LINE
5
183
100
AcDbEntity
100
AcDbLine
10
175.8999938965
20
410.0
30
0.0
11
170.6000061035
21
420.0
31
0.0
6
Solid
370
100
62
7
0
LINE
5
185
100
AcDbEntity
100
AcDbLine
10
170.6000061035
20
420.0
30
0.0
11
165.3000030518
21
430.0
31
0.0
6
Solid
370
100
62
7
0
LINE
5
187
100
AcDbEntity
100
AcDbLine
10
165.3000030518
20
430.0
30
0.0
11
160.0
21
440.0
31
0.0
6
Solid
370
100
62
7
0
LINE
5
189
100
AcDbEntity
100
AcDbLine
10
160.0
20
440.0
30
0.0
11
151.8000030518
21
450.0
31
0.0
6
Solid
370
100
62
7
0
LINE
5
18b
100
AcDbEntity
100
AcDbLine
10
151.8000030518
20
450.0
30
0.0
11
143.6000061035
21
460.0
31
0.0
6
Solid
370
100
62
7
0
LINE
5
18d
100
AcDbEntity
100
AcDbLine
10
143.6000061035
20
460.0
30
0.0
11
135.3999938965
21
470.0
31
0.0
6
Solid
370
100
62
7
0
LINE
5
18f
100
AcDbEntity
100
AcDbLine
10
135.3999938965
20
470.0
30
0.0
11
127.1999969482
21
480.0
31
0.0
6
Solid
370
100
62
7
0
LINE
5
191
100
AcDbEntity
100
AcDbLine
10
127.1999969482
20
480.0
30
0.0
11
119.0
21
490.0
31
0.0
6
Solid
370
100
62
7
0
LINE
5
193
100
AcDbEntity
100
AcDbLine
10
119.0
20
490.0
30
0.0
11
110.8000030518
21
500.0
31
0.0
6
Solid
370
100
62
7
0
LINE
5
195
100
AcDbEntity
100
AcDbLine
10
110.8000030518
20
500.0
30
0.0
11
102.5999984741
21
510.0
31
0.0
6
Solid
370
100
62
7
0
LINE
5
197
100
AcDbEntity
100
AcDbLine
10
102.5999984741
20
510.0
30
0.0
11
94.4000015259
21
520.0
31
0.0
6
Solid
370
100
62
7
0
LINE
5
199
100
AcDbEntity
100
AcDbLine
10
94.4000015259
20
520.0
30
0.0
11
86.1999969482
21
530.0
31
0.0
6
Solid
370
100
62
7
0
LINE
5
19b
100
AcDbEntity
100
AcDbLine
10
86.1999969482
20
530.0
30
0.0
11
78.0
21
540.0
31
0.0
6
Solid
370
100
62
7
0
LINE
5
19d
100
AcDbEntity
100
AcDbLine
10
78.0
20
540.0
30
0.0
11
-78.0
21
540.0
31
0.0
6
Solid
370
100
62
7
0
POINT
5
19f
100
AcDbEntity
100
AcDbPoint
10
-78.0
20
540.0
30
0.0
6
Solid
370
100
62
7
0
ENDSEC
0
SECTION
2
OBJECTS
0
DICTIONARY
5
e5
330
0
100
AcDbDictionary
281
1
3
ACAD_GROUP
350
e6
0
DICTIONARY
5
e6
330
e5
100
AcDbDictionary
281
1
0
ENDSEC
0
EOF
