<svg id="Layer_1" data-name="Layer 1" xmlns="http://www.w3.org/2000/svg" viewBox="0 0 512 512"><title>subway-tram-flat</title><rect y="9.13" width="512.01" height="493.73" rx="54.99" ry="54.99" transform="translate(512) rotate(90)" fill="#e6d6a6"/><rect x="20.23" y="11.09" width="471.54" height="489.81" rx="43.89" ry="43.89" fill="#b94355"/><path d="M140.43,412.2l69.5-50.77h20.54l-8.76,6.66-.9,1.21h71.6l-.92-1.21-8.74-6.66h18.11l70.7,51.07Zm49.86-57.4a40.78,40.78,0,0,1-9.81-4.68,46.81,46.81,0,0,1-9.07-7.57,39.12,39.12,0,0,1-6.65-9.65,24.49,24.49,0,0,1-2.57-10.74V176.56a23.94,23.94,0,0,1,3.18-11.33,52.27,52.27,0,0,1,7.85-10.89,41,41,0,0,1,10.58-8.14A23.88,23.88,0,0,1,195.13,143H316.57a23.94,23.94,0,0,1,11.34,3.18,43.35,43.35,0,0,1,10.71,8.14,49.47,49.47,0,0,1,8,10.89,23.87,23.87,0,0,1,3.18,11.33V322.16a24.76,24.76,0,0,1-3.18,11.48,44.61,44.61,0,0,1-8,10.88,45.42,45.42,0,0,1-10.71,8,23.93,23.93,0,0,1-11.34,3.18H195.13a18.7,18.7,0,0,1-2-.28C192.06,355.2,191.1,355,190.29,354.8Zm145,43.81H179.42a5.9,5.9,0,0,1-1.82,1.21c-.6.4-1.51,1-2.71,1.82s-2.47,1.65-3.78,2.56-2.57,1.76-3.78,2.57l-2.72,1.8h185.5ZM185.77,241.81a4.91,4.91,0,0,0,2.11.6h51.66c3,0,5.64-1.44,7.86-4.39a14.26,14.26,0,0,0,3.33-8.61V194.07a13.38,13.38,0,0,0-3.79-9,11.23,11.23,0,0,0-8.6-4.23H188.78q-3.93,0-8.16,3.77c-2.82,2.51-4.23,5.19-4.23,8v38.08a9.7,9.7,0,0,0,3,6.79A16.61,16.61,0,0,0,185.77,241.81Zm-7.25,55.28a15,15,0,0,0,15.71,15.7,14.46,14.46,0,0,0,10.88-4.37,15.64,15.64,0,0,0,4.23-11.33,15,15,0,0,0-4.39-11,14.54,14.54,0,0,0-10.72-4.38,15.34,15.34,0,0,0-11.34,4.38A15,15,0,0,0,178.51,297.09Zm16,90.64H319L306,379H206.3Zm16.63-225.36a14.37,14.37,0,0,0,1.37,5.58,4.74,4.74,0,0,0,4.68,3.16h77.34a5,5,0,0,0,4.82-3.16,13.36,13.36,0,0,0,1.51-5.58,15,15,0,0,0-1.21-5.46c-.81-2-2.11-3-3.93-3H216.27c-1.81,0-3.12,1-3.93,3A14.94,14.94,0,0,0,211.14,162.37Zm26-43.83a19.08,19.08,0,0,1,19-19,17.35,17.35,0,0,1,13.14,5.6,18.92,18.92,0,0,1,5.28,13.44,17.13,17.13,0,0,1-5.43,13,18.28,18.28,0,0,1-13,5.12,19.17,19.17,0,0,1-13.45-5.12A16.91,16.91,0,0,1,237.12,118.54ZM267.94,240.9a17.15,17.15,0,0,1,3.33.91h51.66c2.82,0,5.44-1.26,7.84-3.79a11.38,11.38,0,0,0,3.64-8V192.54c0-2.8-1.31-5.52-3.92-8.12s-5.44-3.94-8.47-3.94H272.46a11.44,11.44,0,0,0-8.6,4.07,12.89,12.89,0,0,0-3.78,8.91v35.94a12,12,0,0,0,2.41,6.8A12.33,12.33,0,0,0,267.94,240.9Zm34.74,56.19a15.59,15.59,0,0,0,4.23,11.33c2.82,2.92,6.54,4.37,11.18,4.37s8.36-1.45,11.17-4.37a15.6,15.6,0,0,0,4.23-11.33,15.24,15.24,0,0,0-4.23-11,14.81,14.81,0,0,0-11.17-4.38,15.27,15.27,0,0,0-11,4.23A14.85,14.85,0,0,0,302.68,297.09Z" fill="#e6d6a6"/></svg>